<svg width="128" height="128" viewBox="0 0 128 128" xmlns="http://www.w3.org/2000/svg">
  <defs>
    <linearGradient id="bg" x1="0%" y1="0%" x2="100%" y2="100%">
      <stop offset="0%" style="stop-color:#3daee9;stop-opacity:1" />
      <stop offset="100%" style="stop-color:#1d668f;stop-opacity:1" />
    </linearGradient>
  </defs>
  <!-- Background Shape -->
  <rect x="8" y="8" width="112" height="112" rx="14" fill="url(#bg)"/>
  
  <!-- Stylized Card -->
  <rect x="34" y="28" width="60" height="84" rx="6" fill="#eff0f1"/>
  
  <!-- Circus Star Symbol -->
  <path d="M64 42L69.5 56.5H84L73 66L78.5 81L64 72L49.5 81L55 66L44 56.5H58.5L64 42Z" fill="#f1c40f"/>
  
  <!-- Gloss overlay (KDE style) -->
  <path d="M22 8C14.24 8 8 14.24 8 22V100C8 107.76 14.24 114 22 114H106C113.76 114 120 107.76 120 100V22C120 14.24 113.76 8 106 8H22Z" fill="white" fill-opacity="0.05"/>
</svg>
